# xmcd
#
# Track frame offsets:
#	150
#	55673
#	121276
#	154507
#	160629
#	189021
#	213483
#	256414
#	295435
#
# Disc length: 4234 seconds
#
# Revision: 1
# Processed by: cddbd v1.5.2PL0 Copyright (c) Steve Scherf et al.
# Submitted via: audiograbber 1.83.01
#
DISCID=73108809
DTITLE=Grateful Dead - 79-11-24 Golden Hall, San Diego CA
DYEAR=1900
DGENRE=
TTITLE0=Terrapin Station
TTITLE1=Playing In The Band
TTITLE2=Drums
TTITLE3=Space
TTITLE4=Lost Sailor
TTITLE5=Saint Of Circumstance
TTITLE6=Wharf Rat
TTITLE7=Sugar Magnolia
TTITLE8=One More Saturday Night
EXTD=
EXTT0=
EXTT1=
EXTT2=
EXTT3=
EXTT4=
EXTT5=
EXTT6=
EXTT7=
EXTT8=
PLAYORDER=
